<svg xmlns="http://www.w3.org/2000/svg" width="64" height="57" fill="none" viewBox="0 0 64 57">
    <path fill="#767676" fill-rule="evenodd" d="M13.75 2.495c.689 0 1.25-.56 1.25-1.247C15 .56 14.439 0 13.75 0S12.5.56 12.5 1.248c0 .687.561 1.247 1.25 1.247zm36.5 0c.689 0 1.25-.56 1.25-1.247C51.5.56 50.939 0 50.25 0S49 .56 49 1.248c0 .687.561 1.247 1.25 1.247zM63.2 27.112c-1.705-.657-3.253-1.623-4.6-2.87C55.677 21.533 54 17.7 54 13.722v-2.495c0-.689-.56-1.248-1.25-1.248H51.5V6.238c0-.688-.561-1.248-1.25-1.248S49 5.55 49 6.238V9.98h-1.25c-.69 0-1.25.56-1.25 1.248v2.495c0 7.765-6.414 14.315-14.208 14.472-8.018.161-14.792-6.487-14.792-14.472v-2.495c0-.689-.56-1.248-1.25-1.248H15V6.238c0-.688-.561-1.248-1.25-1.248s-1.25.56-1.25 1.248V9.98h-1.25c-.69 0-1.25.56-1.25 1.248v2.495c0 3.977-1.677 7.81-4.6 10.518-1.347 1.248-2.895 2.214-4.6 2.87-.482.186-.8.649-.8 1.165v14.141c0 .689.56 1.248 1.25 1.248H10v4.99H7.5c-.69 0-1.25.559-1.25 1.248v4.99c0 .689.56 1.247 1.25 1.247H20c.69 0 1.25-.558 1.25-1.247v-4.99c0-.69-.56-1.248-1.25-1.248h-2.5v-4.99h29v4.99H44c-.69 0-1.25.559-1.25 1.248v4.99c0 .689.56 1.247 1.25 1.247h12.5c.69 0 1.25-.558 1.25-1.247v-4.99c0-.69-.56-1.248-1.25-1.248H54v-4.99h8.75c.69 0 1.25-.559 1.25-1.248V28.275c0-.515-.318-.978-.8-1.163zm-1.7 9.067H59v-8.45c.792.53 1.627.99 2.5 1.378v7.072zm-5 0V25.688c-.963-.953-1.8-2.013-2.5-3.152v13.643h2.5zm-10 0H44V25.74c.962-.958 1.8-2.024 2.5-3.169v13.61zm-7.5 0h2.5v-8.383c-.792.534-1.627 1-2.5 1.393v6.99zm-2.5 0h-3.25v-5.534c1.103-.08 2.19-.265 3.25-.556v6.09zm-9 0h3.25v-5.534c-1.104-.08-2.19-.265-3.25-.556v6.09zm-2.5 0h-2.5v-8.383c.792.534 1.627 1 2.5 1.393v6.99zm-5 0V25.74c-.962-.957-1.8-2.024-2.5-3.169v13.61H20zm-10 0H7.5V25.688c.963-.953 1.8-2.013 2.5-3.152v13.643zm-5-8.45c-.792.53-1.627.99-2.5 1.378v7.072H5v-8.45zm-2.5 13.44v-2.495H10v2.495H2.5zm6.25 9.98v2.496h10V51.15h-10zm3.75-2.495V12.475H15v36.18h-2.5zm5-9.98v2.495h29v-2.495h-29zm27.75 14.971V51.15h10v2.495h-10zM49 12.475v36.18h2.5v-36.18H49zM61.5 41.17H54v-2.495h7.5v2.495z" clip-rule="evenodd"/>
</svg>
