<svg xmlns="http://www.w3.org/2000/svg" width="60" height="64" fill="none" viewBox="0 0 60 64">
    <path fill="#767676" fill-rule="evenodd" d="M59.213 62.74V33.008c0-.696-.565-1.26-1.26-1.26-.696 0-1.26.564-1.26 1.26v5.795H51.78v-4.535h.755c.696 0 1.26-.564 1.26-1.26 0-.696-.564-1.26-1.26-1.26h-.755v-.504c0-1.623-.635-3.147-1.784-4.288l-3.373-3.373c-.492-.492-1.29-.492-1.782 0l-.62.621v-.015c0-3.923-1.534-7.606-4.315-10.367l-7.983-7.984c-.313-.312-.672-.547-1.057-.707V1.26c0-.696-.564-1.26-1.26-1.26-.695 0-1.26.564-1.26 1.26V5.13c-.384.16-.744.395-1.056.707l-7.98 7.98c-2.784 2.765-4.318 6.448-4.318 10.371v.015l-.62-.621c-.493-.492-1.29-.492-1.783 0l-3.37 3.37c-1.151 1.144-1.786 2.668-1.786 4.291v.504h-.756c-.696 0-1.26.564-1.26 1.26 0 .696.564 1.26 1.26 1.26h.756v4.535H2.52v-5.795c0-.696-.564-1.26-1.26-1.26-.696 0-1.26.564-1.26 1.26V62.74C0 63.436.564 64 1.26 64h56.693c.695 0 1.26-.564 1.26-1.26zM28.346 30.11c0-.694.566-1.26 1.26-1.26.694 0 1.26.566 1.26 1.26 0 .695-.566 1.26-1.26 1.26-.694 0-1.26-.565-1.26-1.26zM6.3 51.528c.696 0 1.26-.564 1.26-1.26V47.28c0-.476.263-.906.687-1.123l1.518-.774 1.517.774c.424.217.688.647.688 1.123v2.988c0 .696.564 1.26 1.26 1.26.695 0 1.26-.564 1.26-1.26V47.28c0-1.428-.79-2.718-2.063-3.367l-2.09-1.066c-.36-.184-.785-.184-1.145 0l-2.09 1.066c-1.272.65-2.062 1.939-2.062 3.367v2.988c0 .696.565 1.26 1.26 1.26zm40.945-1.26c0 .696-.564 1.26-1.26 1.26-.696 0-1.26-.564-1.26-1.26V47.28c0-1.428.79-2.718 2.062-3.367l2.09-1.066c.36-.184.786-.184 1.145 0l2.09 1.066c1.272.65 2.062 1.939 2.062 3.367v2.988c0 .696-.564 1.26-1.26 1.26-.695 0-1.26-.564-1.26-1.26V47.28c0-.476-.263-.906-.687-1.123l-1.517-.774-1.518.774c-.423.217-.687.647-.687 1.123v2.988zm-16.378-2.646c0-.696-.564-1.26-1.26-1.26-.695 0-1.26.564-1.26 1.26v3.276c0 .696.565 1.26 1.26 1.26.696 0 1.26-.564 1.26-1.26v-3.276zm18.394-8.819v-4.535h-7.055v4.535h2.267v-1.764c0-.696.565-1.26 1.26-1.26.696 0 1.26.564 1.26 1.26v1.764h2.268zM30.866 61.481v-5.418c0-.696-.564-1.26-1.26-1.26-.695 0-1.26.565-1.26 1.26v5.418h-3.78V48.315c0-1.51.833-2.88 2.172-3.577l2.868-1.49 2.868 1.49c1.34.697 2.172 2.068 2.172 3.577v13.166h-3.78zm6.3-13.166V61.48h2.519V36.41H19.527v25.07h2.52V48.315c0-2.454 1.352-4.68 3.529-5.813l3.45-1.793c.363-.19.797-.19 1.162 0l3.449 1.793c2.176 1.132 3.528 3.36 3.528 5.813zm5.039-17.8c.38-.552.709-1.125.984-1.716l2.543-2.543 2.486 2.485c.672.668 1.042 1.556 1.042 2.503v.504h-7.055v-1.233zm-16.6-19.428h8.002L30.141 7.62c-.295-.295-.774-.295-1.069 0l-3.466 3.466zM18.926 28.85c-.927-1.433-1.414-3.032-1.414-4.662 0-3.246 1.269-6.294 3.577-8.585l1.997-1.998h13.041l2 2c2.305 2.289 3.574 5.337 3.574 8.583 0 1.63-.487 3.229-1.415 4.662h-5.01c-.696 0-1.26.565-1.26 1.26 0 .694.564 1.26 1.26 1.26h4.41v2.519H19.527v-2.52h4.409c.694 0 1.26-.565 1.26-1.26 0-.694-.566-1.26-1.26-1.26h-5.01zm-8.973 2.897h7.055v-1.233c-.38-.552-.71-1.125-.984-1.716l-2.544-2.543-2.482 2.482c-.675.67-1.045 1.56-1.045 2.506v.504zm2.268 7.055H9.953v-4.535h7.055v4.535H14.74v-1.764c0-.696-.564-1.26-1.26-1.26-.695 0-1.26.564-1.26 1.26v1.764zM2.52 61.481h2.52v-2.863c0-1.427.79-2.717 2.061-3.366l2.09-1.067c.36-.183.786-.183 1.145 0l2.09 1.067c1.272.649 2.062 1.939 2.062 3.366v2.863h2.52V41.323H2.52v20.158zm8.761-3.986c.424.217.688.647.688 1.123v2.862h-4.41v-2.862c0-.476.264-.906.687-1.123l1.518-.774 1.517.774zm40.373 1.123c0-.476-.264-.906-.688-1.123l-1.517-.774-1.518.775c-.423.216-.687.646-.687 1.122v2.862h4.41v-2.862zm-9.45-17.295h14.489v20.158h-2.52v-2.863c0-1.427-.79-2.717-2.062-3.366l-2.09-1.067c-.36-.183-.785-.183-1.145 0l-2.09 1.067c-1.272.649-2.062 1.939-2.062 3.366v2.863h-2.52V41.323z" clip-rule="evenodd"/>
</svg>
