<svg xmlns="http://www.w3.org/2000/svg" width="81" height="81" fill="none" viewBox="0 0 81 81">
    <circle cx="40.5" cy="40.5" r="40.5" fill="#FFD586" fill-opacity=".2"/>
    <path fill="#FFC964" d="M54.188 30.125c-1.551 0-2.813 1.262-2.813 2.813v6.012c-.424-.246-.907-.378-1.41-.378-.752 0-1.458.292-1.99.823l-4.28 4.281c-.886.886-1.373 2.063-1.373 3.315v9.072c0 .517.42.937.937.937h7.803c.518 0 .938-.42.938-.938v-4.09l4.213-6.32c.515-.772.787-1.671.787-2.6V32.938c0-1.551-1.262-2.813-2.813-2.813zm.937 12.927c0 .557-.163 1.097-.472 1.56l-4.37 6.555c-.103.154-.158.335-.158.52v3.438h-5.928v-8.134c0-.751.292-1.458.823-1.989l4.281-4.28c.177-.178.413-.275.663-.275.25 0 .486.097.663.274.366.366.366.96 0 1.326L47.275 45.4c-.367.366-.367.96 0 1.325.366.367.96.367 1.325 0l3.643-3.642c.65-.65 1.007-1.513 1.007-2.43v-7.715c0-.517.42-.938.938-.938.517 0 .937.42.937.938v10.114zM34.025 39.395c-.532-.53-1.238-.823-1.99-.823-.503 0-.986.132-1.41.378v-6.013c0-1.55-1.262-2.812-2.813-2.812-1.55 0-2.812 1.262-2.812 2.813v10.114c0 .929.272 1.828.787 2.6L30 51.972v4.09c0 .518.42.938.938.938h7.803c.518 0 .937-.42.937-.938v-9.071c0-1.252-.487-2.43-1.373-3.315l-4.28-4.28zm-2.307 11.772l-4.37-6.555c-.31-.463-.473-1.003-.473-1.56V32.938c0-.517.42-.938.938-.938.516 0 .937.42.937.938v7.714c0 .918.358 1.781 1.007 2.43l3.643 3.643c.366.367.96.367 1.325 0 .367-.366.367-.96 0-1.325l-3.352-3.353c-.366-.366-.366-.96 0-1.326.177-.177.412-.274.663-.274.25 0 .486.097.663.274l4.28 4.281c.532.531.824 1.238.824 1.989v8.134h-5.928v-3.438c0-.185-.055-.365-.157-.52zM50.063 30.12c0-1.368-.533-2.654-1.5-3.62-.967-.967-2.253-1.5-3.62-1.5-1.368 0-2.653.533-3.62 1.5l-.323.322-.323-.322c-.967-.967-2.252-1.5-3.62-1.5-1.367 0-2.653.533-3.62 1.5-.967.966-1.5 2.252-1.5 3.62 0 1.367.533 2.653 1.5 3.62l6.9 6.9c.183.183.423.274.663.274.24 0 .48-.091.663-.274l6.9-6.9c.967-.967 1.5-2.253 1.5-3.62zm-2.826 2.294L41 38.65l-6.237-6.237c-.613-.613-.95-1.428-.95-2.294 0-.867.337-1.682.95-2.295s1.427-.95 2.294-.95 1.682.337 2.294.95l.986.986c.176.176.414.275.663.275.249 0 .487-.1.663-.275l.986-.986c.612-.613 1.427-.95 2.294-.95s1.681.337 2.294.95.95 1.428.95 2.295c0 .866-.337 1.681-.95 2.294z"/>
</svg>
