<svg xmlns="http://www.w3.org/2000/svg" width="81" height="81" fill="none" viewBox="0 0 81 81">
    <circle cx="40.5" cy="40.5" r="40.5" fill="#FFCAB5" fill-opacity=".2"/>
    <path fill="#FFB699" d="M56.063 26.313h-3.75c-.482 0-.879.363-.931.83-.836-.532-1.818-.83-2.839-.83h-6.23c-1.896 0-3.438 1.542-3.438 3.437v5c0 1.895 1.542 3.438 3.438 3.438h.937v2.187c0 1.55 1.262 2.813 2.813 2.813 1.55 0 2.812-1.262 2.812-2.813v-.768c0-.971.652-1.836 1.587-2.103l.913-.261v.007c0 .518.42.938.938.938h3.75c.517 0 .937-.42.937-.938v-10c0-.518-.42-.938-.938-.938zM49.946 35.7C48.212 36.197 47 37.803 47 39.607v.768c0 .517-.42.938-.938.938-.516 0-.937-.421-.937-.938V37.25c0-.518-.42-.938-.938-.938h-1.874c-.862 0-1.563-.7-1.563-1.562v-5c0-.862.7-1.563 1.563-1.563h6.23c1.14 0 2.204.576 2.832 1.516v5.59l-1.429.408zm5.179.611H53.25v-8.124h1.875v8.125zM39.688 43.813h-.938v-2.188c0-1.55-1.262-2.813-2.813-2.813-1.55 0-2.812 1.262-2.812 2.813v.768c0 .971-.652 1.836-1.587 2.103l-.913.261v-.007c0-.518-.42-.938-.938-.938h-3.75c-.517 0-.937.42-.937.938v10c0 .518.42.938.938.938h3.75c.481 0 .878-.364.93-.831.836.532 1.818.83 2.839.83h6.23c1.896 0 3.438-1.542 3.438-3.437v-5c0-1.895-1.542-3.438-3.438-3.438zm-10.938 10h-1.875v-8.126h1.875v8.126zm12.5-1.563c0 .862-.7 1.563-1.563 1.563h-6.23c-1.14 0-2.204-.576-2.832-1.516v-5.59l1.428-.408C33.788 45.803 35 44.197 35 42.393v-.768c0-.517.42-.938.938-.938.516 0 .937.421.937.938v3.125c0 .518.42.938.938.938h1.874c.862 0 1.563.7 1.563 1.562v5z"/>
</svg>
