<svg xmlns="http://www.w3.org/2000/svg" width="81" height="81" fill="none" viewBox="0 0 81 81">
    <circle cx="40.5" cy="40.5" r="40.5" fill="#A1BC80" fill-opacity=".2"/>
    <path fill="#A1BC80" d="M41 28.75c-.519 0-.938.419-.938.937 0 .517.42.937.937.937 3.102 0 5.626 2.524 5.626 5.625 0 .518.42.938.938.938.517 0 .937-.42.937-.938 0-4.135-3.365-7.5-7.5-7.5z"/>
    <path fill="#A1BC80" d="M38.583 25.252c-4.235.885-7.67 4.286-8.573 8.548-.763 3.6.177 7.212 2.58 9.913 1.174 1.32 1.847 3.063 1.847 4.786v1.875c0 1.248.817 2.308 1.944 2.675.37 2.189 2.27 3.95 4.619 3.95 2.348 0 4.249-1.76 4.62-3.95 1.126-.367 1.943-1.427 1.943-2.675V48.5c0-1.726.675-3.448 1.902-4.848 1.796-2.049 2.785-4.677 2.785-7.402 0-7.097-6.497-12.495-13.667-10.997zM41 55.124c-1.205 0-2.262-.829-2.652-1.943h5.304c-.39 1.114-1.447 1.943-2.652 1.943zm4.688-4.75c0 .517-.421.938-.938.938h-7.5c-.517 0-.938-.42-.938-.938v-.937h9.376v.937zm2.367-7.959c-1.307 1.492-2.112 3.29-2.316 5.147h-9.478c-.204-1.857-1.006-3.674-2.27-5.095-2.003-2.25-2.785-5.268-2.147-8.278.745-3.513 3.607-6.367 7.123-7.102 6.002-1.254 11.408 3.253 11.408 9.162 0 2.27-.824 4.46-2.32 6.166zM27.813 36.25h-1.875c-.518 0-.938.42-.938.937 0 .518.42.938.938.938h1.875c.517 0 .937-.42.937-.938s-.42-.938-.938-.938zM28.2 31.562l-1.325-1.326c-.366-.366-.96-.366-1.326 0-.366.366-.366.96 0 1.326l1.326 1.326c.366.366.96.366 1.326 0 .366-.366.366-.96 0-1.326zM28.2 41.486c-.365-.366-.959-.366-1.325 0l-1.326 1.326c-.366.366-.366.96 0 1.326.366.366.96.366 1.326 0l1.326-1.326c.366-.366.366-.96 0-1.326zM56.063 36.25h-1.876c-.517 0-.937.42-.937.937 0 .518.42.938.938.938h1.874c.518 0 .938-.42.938-.938s-.42-.938-.938-.938zM56.45 30.236c-.365-.366-.959-.366-1.325 0l-1.326 1.326c-.366.366-.366.96 0 1.326.366.366.96.366 1.326 0l1.326-1.326c.366-.366.366-.96 0-1.326zM56.45 42.812l-1.325-1.326c-.366-.366-.96-.366-1.326 0-.366.366-.366.96 0 1.326l1.326 1.326c.366.366.96.366 1.326 0 .366-.366.366-.96 0-1.326z"/>
</svg>
