<svg xmlns="http://www.w3.org/2000/svg" width="81" height="81" fill="none" viewBox="0 0 81 81">
    <circle cx="40.5" cy="40.5" r="40.5" fill="#248EA9" fill-opacity=".2"/>
    <g clip-path="url(#clip0)">
        <path fill="#248EA9" d="M52.203 48.538l-2.582-8.459 1.39-1.809c.845-1.067.684-2.642-.363-3.515l-2.693-2.246c-.884-.738-2.005-1.144-3.156-1.144h-.31c.431-.654.682-1.436.682-2.276 0-2.289-1.862-4.151-4.151-4.151-2.29 0-4.152 1.862-4.152 4.151 0 .84.25 1.622.681 2.276h-.309c-1.151 0-2.272.406-3.156 1.143l-2.694 2.247c-1.046.873-1.208 2.448-.362 3.515l1.216 1.58-2.369 8.688h5.72v5.219c0 1.754 1.428 3.18 3.182 3.18.874 0 1.667-.354 2.243-.927.575.573 1.368.928 2.242.928 1.754 0 3.181-1.427 3.181-3.181v-5.22h5.76zm-2.535-1.877h-3.225v-2.445l1.774-2.309 1.451 4.754zM38.744 29.09c0-1.254 1.02-2.275 2.276-2.275 1.254 0 2.275 1.02 2.275 2.275 0 1.254-1.02 2.274-2.273 2.276h-.005c-1.254-.002-2.273-1.022-2.273-2.276zm-6.151 7.107l2.693-2.246c.547-.457 1.241-.709 1.954-.709h7.559c.713 0 1.407.252 1.955.709l2.693 2.246c.27.226.312.635.092.911l-3.09 4.022V35.8h-1.877v3.834l-7.1.005v-3.833h-1.876v5.325l-3.085-4.01-.01-.014c-.221-.276-.18-.685.092-.91zm-.262 10.465l1.349-4.943 1.916 2.491v2.452h-3.264zm10.931 8.4c-.719 0-1.304-.585-1.304-1.304v-9.29H40.08v9.29c0 .719-.585 1.304-1.304 1.304-.72 0-1.305-.585-1.305-1.304V41.515l7.095-.004v12.246c0 .719-.586 1.304-1.305 1.304z"/>
    </g>
    <defs>
        <clipPath id="clip0">
            <path fill="#fff" d="M0 0H32V32H0z" transform="translate(25 25)"/>
        </clipPath>
    </defs>
</svg>
