<svg xmlns="http://www.w3.org/2000/svg" width="81" height="81" fill="none" viewBox="0 0 81 81">
    <circle cx="40.5" cy="40.5" r="40.5" fill="#6DDCC0" fill-opacity=".2"/>
    <path fill="#00A86B" d="M48.765 33.235C47.107 28.447 42.572 25 37.25 25 30.513 25 25 30.513 25 37.25c0 5.322 3.447 9.857 8.235 11.515C34.893 53.553 39.428 57 44.75 57 51.487 57 57 51.487 57 44.75c0-5.322-3.447-9.857-8.235-11.515zm-21.89 4.015c0-5.72 4.654-10.375 10.375-10.375 4.06 0 7.58 2.374 9.26 5.814-.574-.083-1.162-.127-1.76-.127-6.737 0-12.188 5.488-12.188 12.188 0 .598.044 1.186.127 1.76-3.44-1.68-5.814-5.2-5.814-9.26zm16.97 7.921l-7.016-7.016c.4-.481.845-.925 1.326-1.326l7.016 7.016c-.4.481-.845.925-1.326 1.326zm-3.414 1.889l-5.49-5.49c.209-.645.48-1.263.806-1.845l6.528 6.527c-.582.327-1.2.598-1.844.808zm-5.946-3.294l3.75 3.75c-1.182.112-2.362.021-3.492-.259-.28-1.13-.37-2.308-.258-3.491zm11.767-1.491l-6.527-6.527c.582-.327 1.2-.598 1.844-.808l5.49 5.49c-.209.645-.48 1.263-.806 1.845zm1.263-4.04l-3.75-3.75c1.183-.113 2.362-.022 3.492.258.28 1.13.37 2.308.258 3.491zm-2.765 16.89c-4.06 0-7.58-2.374-9.26-5.814 8.088 1.164 14.98-5.766 13.821-13.822 3.44 1.681 5.814 5.2 5.814 9.261 0 5.72-4.654 10.375-10.375 10.375z"/>
</svg>
