<svg xmlns="http://www.w3.org/2000/svg" width="81" height="81" fill="none" viewBox="0 0 81 81">
    <circle cx="40.5" cy="40.5" r="40.5" fill="#A17DA2" fill-opacity=".2"/>
    <g fill="#A17DA2" clip-path="url(#clip0)">
        <path d="M55.53 33.422c-3.13-1.875-4.848-3.862-5.737-5.198-.933-1.4-1.176-2.398-1.19-2.461-.088-.45-.48-.763-.939-.763H34.393c-.456 0-.848.32-.939.766-.008.04-.886 4.036-6.926 7.656-.363.218-.54.647-.436 1.057.084.33 2.085 8.152 5.024 13.028 1.813 3.008 4.119 5.376 5.332 6.52.89.84 1.755 1.555 2.502 2.07 1.176.81 1.75.903 2.079.903.329 0 .902-.094 2.078-.903.748-.515 1.613-1.23 2.503-2.07 1.213-1.144 3.519-3.512 5.332-6.52 2.94-4.876 4.94-12.697 5.023-13.028.104-.41-.073-.84-.436-1.057zm-1.603 1.262c-.238.863-.7 2.467-1.335 4.32h-4.963c-.421-2.908-2.731-5.211-5.642-5.623v-6.465h4.974c.542 1.458 2.218 4.74 6.966 7.768zM41.052 44.692c-2.569 0-4.664-2.058-4.728-4.612.005-.039.008-.078.008-.118 0-.04-.003-.08-.008-.119.064-2.553 2.16-4.612 4.728-4.612 2.608 0 4.73 2.122 4.73 4.73 0 2.61-2.122 4.731-4.73 4.731zm-5.956-17.776h4.975v6.472c-2.889.429-5.177 2.724-5.596 5.616h-5.01c-.634-1.853-1.097-3.457-1.335-4.32 4.749-3.028 6.424-6.31 6.966-7.768zm2.51 25.57c-1.106-1.06-3.206-3.243-4.85-5.968-.983-1.632-1.867-3.656-2.602-5.598h4.32c.421 2.9 2.72 5.199 5.62 5.62v8.019c-.6-.408-1.442-1.073-2.488-2.074zm11.695-5.968c-1.643 2.725-3.744 4.908-4.85 5.967-1.019.976-1.845 1.632-2.441 2.041V46.54c2.9-.42 5.199-2.72 5.62-5.62h4.273c-.734 1.943-1.619 3.967-2.602 5.599z"/>
        <path d="M42.317 38.197l-2.113 2.113-.552-.67c-.336-.41-.94-.468-1.348-.132-.409.336-.468.94-.131 1.349l1.222 1.486c.172.208.424.335.694.348h.046c.254 0 .498-.1.678-.28l2.858-2.858c.375-.375.375-.981 0-1.355-.374-.374-.98-.374-1.354 0z"/>
    </g>
    <defs>
        <clipPath id="clip0">
            <path fill="#fff" d="M0 0H32V32H0z" transform="translate(25 25)"/>
        </clipPath>
    </defs>
</svg>
