<svg xmlns="http://www.w3.org/2000/svg" width="81" height="81" fill="none" viewBox="0 0 81 81">
    <circle cx="40.5" cy="40.5" r="40.5" fill="#4643EE" fill-opacity=".1"/>
    <path fill="#4643EE" d="M52.313 41.76H49.18c-.426 0-.839.058-1.232.165-.775-1.523-2.357-2.57-4.18-2.57h-5.536c-1.823 0-3.405 1.047-4.18 2.57-.393-.107-.806-.165-1.232-.165h-3.133c-2.584 0-4.687 2.102-4.687 4.687v5.007c0 1.551 1.262 2.813 2.813 2.813h26.375c1.55 0 2.812-1.262 2.812-2.813v-5.007c0-2.585-2.103-4.688-4.688-4.688zm-18.769 2.283v8.349h-5.731c-.517 0-.938-.42-.938-.938v-5.007c0-1.55 1.262-2.813 2.813-2.813h3.132c.254 0 .5.035.735.099-.006.102-.01.206-.01.31zm13.037 8.349H35.419v-8.35c0-1.55 1.262-2.812 2.813-2.812h5.536c1.551 0 2.813 1.262 2.813 2.813v8.349zm8.544-.938c0 .517-.42.938-.938.938h-5.731v-8.35c0-.104-.005-.207-.011-.31.234-.063.48-.097.735-.097h3.133c1.55 0 2.812 1.261 2.812 2.812v5.007z"/>
    <path fill="#4643EE" d="M31.254 32.907c-2.297 0-4.166 1.868-4.166 4.165 0 2.297 1.869 4.165 4.166 4.165 2.296 0 4.165-1.868 4.165-4.165 0-2.297-1.868-4.166-4.165-4.166zm0 6.455c-1.263 0-2.29-1.027-2.29-2.29 0-1.263 1.027-2.29 2.29-2.29 1.263 0 2.29 1.027 2.29 2.29 0 1.263-1.027 2.29-2.29 2.29zM41 27.733c-3.069 0-5.565 2.497-5.565 5.565 0 3.069 2.496 5.565 5.565 5.565 3.069 0 5.565-2.496 5.565-5.565 0-3.068-2.496-5.565-5.565-5.565zm0 9.255c-2.035 0-3.69-1.655-3.69-3.69s1.655-3.69 3.69-3.69 3.69 1.655 3.69 3.69-1.655 3.69-3.69 3.69zM50.746 32.907c-2.296 0-4.165 1.868-4.165 4.165 0 2.297 1.869 4.165 4.165 4.165 2.297 0 4.166-1.868 4.166-4.165 0-2.297-1.869-4.166-4.166-4.166zm0 6.455c-1.263 0-2.29-1.027-2.29-2.29 0-1.263 1.027-2.29 2.29-2.29 1.263 0 2.29 1.027 2.29 2.29 0 1.263-1.027 2.29-2.29 2.29z"/>
</svg>
