<svg xmlns="http://www.w3.org/2000/svg" width="81" height="81" fill="none" viewBox="0 0 81 81">
    <circle cx="40.5" cy="40.5" r="40.5" fill="#4643EE" fill-opacity=".1"/>
    <path fill="#4643EE" d="M54.357 33.125h-.62c-.25 0-.491.035-.72.1-.234-1.22-1.309-2.144-2.595-2.144h-.62c-1.457 0-2.642 1.186-2.642 2.643v4.266H34.84v-4.788c0-1.458-1.185-2.643-2.642-2.643h-.62c-1.286 0-2.36.924-2.595 2.144-.229-.065-.47-.1-.72-.1h-.62c-1.457 0-2.643 1.185-2.643 2.642v10.987c0 1.458 1.186 2.643 2.643 2.643h.619c.25 0 .492-.036.721-.1.234 1.219 1.309 2.144 2.595 2.144h.62c1.457 0 2.642-1.186 2.642-2.643v-3.838h12.32v4.36c0 1.457 1.185 2.643 2.642 2.643h.62c1.286 0 2.36-.925 2.595-2.144.229.065.47.1.72.1h.62c1.457 0 2.643-1.185 2.643-2.642V35.767c0-1.457-1.186-2.642-2.643-2.642zM28.936 46.232c0 .372-.302.674-.674.674h-.62c-.37 0-.673-.302-.673-.674V35.245c0-.372.302-.674.674-.674h.619c.372 0 .674.302.674.674v10.987zm3.935 2.044c0 .371-.302.673-.673.673h-.62c-.371 0-.673-.302-.673-.673V33.2c0-.371.302-.673.673-.673h.62c.371 0 .673.302.673.673v15.075zm14.289-5.807H34.84v-2.51h12.32v2.51zm3.935 6.33c0 .37-.302.673-.673.673h-.62c-.371 0-.673-.302-.673-.674V33.724c0-.372.302-.674.673-.674h.62c.371 0 .673.302.673.674v15.074zm3.936-2.044c0 .371-.302.673-.674.673h-.62c-.37 0-.673-.302-.673-.673V35.767c0-.371.302-.673.674-.673h.62c.37 0 .673.302.673.673v10.988z"/>
</svg>
