<svg xmlns="http://www.w3.org/2000/svg" width="81" height="81" fill="none" viewBox="0 0 81 81">
    <circle cx="40.5" cy="40.5" r="40.5" fill="#4643EE" fill-opacity=".1"/>
    <path fill="#4643EE" d="M56.068 30.688h-8.505v-.938c0-1.55-1.262-2.813-2.813-2.813h-7.5c-1.55 0-2.813 1.262-2.813 2.813v.938h-8.5c-.521 0-.937.427-.937.937V52.25c0 1.55 1.262 2.813 2.813 2.813h26.375c1.55 0 2.812-1.262 2.812-2.813V31.645v-.004c-.036-.616-.415-.95-.932-.953zm-19.755-.938c0-.517.42-.938.937-.938h7.5c.517 0 .938.421.938.938v.938h-9.376v-.938zm18.449 2.813l-2.912 8.733c-.127.384-.485.642-.889.642h-5.273V41c0-.518-.42-.938-.938-.938h-7.5c-.518 0-.938.42-.938.938v.938H31.04c-.404 0-.762-.258-.89-.642l-2.91-8.733h27.523zm-10.95 9.374v1.876h-5.624v-1.876h5.624zM55.126 52.25c0 .517-.42.938-.938.938H27.814c-.517 0-.938-.421-.938-.938V37.402l1.496 4.487c.383 1.15 1.455 1.923 2.668 1.923h5.273v.938c0 .518.42.938.938.938h7.5c.518 0 .938-.42.938-.938v-.938h5.273c1.213 0 2.285-.772 2.668-1.923l1.496-4.487V52.25z"/>
</svg>
