<svg xmlns="http://www.w3.org/2000/svg" width="81" height="81" fill="none" viewBox="0 0 81 81">
    <circle cx="40.5" cy="40.5" r="40.5" fill="#4643EE" fill-opacity=".1"/>
    <g fill="#4643EE" clip-path="url(#clip0)">
        <path d="M44.088 32.853l2.193 1.622c.247.182.122.587-.19.588l-.688.005H45.4c-.177 0-.322-.144-.323-.32-.003-.518-.425-.937-.943-.932-.518.003-.935.425-.932.943.006 1 .684 1.842 1.601 2.1v.046c0 .518.42.938.938.938s.937-.42.937-.938v-.047c.366-.101.7-.296.974-.573.412-.418.637-.971.633-1.56v-.006c-.005-.688-.337-1.342-.89-1.751l-2.193-1.622c-.249-.185-.118-.582.192-.582h.69c.177 0 .322.145.322.323 0 .517.42.937.937.937.518 0 .938-.42.938-.937 0-1.006-.68-1.855-1.603-2.115v-.045c0-.518-.42-.938-.937-.938-.518 0-.938.42-.938.938v.044c-.925.258-1.606 1.109-1.606 2.116 0 .693.333 1.353.89 1.766z"/>
        <path d="M45.742 40.832c4.366 0 7.918-3.55 7.918-7.916 0-4.365-3.552-7.916-7.918-7.916s-7.918 3.551-7.918 7.916 3.552 7.916 7.918 7.916zm0-13.957c3.332 0 6.043 2.71 6.043 6.041 0 3.331-2.71 6.041-6.043 6.041-3.332 0-6.043-2.71-6.043-6.04 0-3.332 2.71-6.042 6.043-6.042zM56.355 42.95c-1.014-1.306-2.844-1.552-4.162-.638L48.626 44.7c-.495-.923-1.47-1.552-2.589-1.552h-2.544c-1.285-1.205-3-1.889-4.768-1.889-1.328 0-2.619.375-3.734 1.085-1.005.639-1.828 1.522-2.392 2.565l-.478.292-.124-.362c-.167-.49-.7-.752-1.19-.584l-5.172 1.767c-.49.168-.752.7-.584 1.19l3.13 9.155c.167.49.7.75 1.19.584l5.172-1.768c.462-.158.764-.662.573-1.22l8.208-.255c2.235-.003 4.379-.689 6.2-1.985l6.189-4.403c1.419-1.01 1.712-2.994.642-4.37zM29.651 54.871l-2.523-7.38 3.398-1.16c.366 1.07 2.146 6.274 2.523 7.38l-3.398 1.16zm24.975-9.08l-6.19 4.402c-1.505 1.072-3.278 1.638-5.127 1.638h-.029l-8.798.273-1.74-5.088 1.058-.646c.156-.096.278-.236.352-.387.863-1.759 2.615-2.851 4.573-2.851 1.415 0 2.729.566 3.7 1.595.18.19.436.293.682.293h2.93c.586 0 1.062.477 1.062 1.062 0 .58-.468 1.062-1.062 1.062h-5.29c-.517 0-.937.42-.937.937 0 .518.42.938.938.938h5.289c.785 0 1.523-.306 2.077-.86.387-.388.652-.864.778-1.383l4.35-2.911.017-.01c.513-.36 1.223-.262 1.616.243.414.533.3 1.301-.25 1.693z"/>
    </g>
    <defs>
        <clipPath id="clip0">
            <path fill="#fff" d="M0 0H32V32H0z" transform="translate(25 25)"/>
        </clipPath>
    </defs>
</svg>
